<svg width="60" height="56" viewBox="0 0 60 56" fill="none" xmlns="http://www.w3.org/2000/svg">
<path d="M58 28C58 41.7827 45.6476 53.2728 30 53.2728C14.3524 53.2728 2 41.7827 2 28C2 14.2174 14.3524 2.72729 30 2.72729C45.6476 2.72729 58 14.2174 58 28Z" fill="#6C2A38" stroke="#EAEAEA" stroke-width="4"/>
<path d="M13.6608 25.3232C12.6845 26.2995 12.6845 27.8824 13.6608 28.8587L29.5707 44.7686C30.547 45.7449 32.1299 45.7449 33.1063 44.7686C34.0826 43.7923 34.0826 42.2094 33.1063 41.2331L18.9641 27.0909L33.1063 12.9488C34.0826 11.9725 34.0826 10.3896 33.1063 9.41327C32.1299 8.43696 30.547 8.43696 29.5707 9.41327L13.6608 25.3232ZM45.4286 24.5909L15.4286 24.5909V29.5909L45.4286 29.5909V24.5909Z" fill="#EAEAEA"/>
</svg>
